<svg width="60" height="60" xmlns="http://www.w3.org/2000/svg"><path fill="none" d="M-1-1h582v402H-1z"/><g><path d="M14.457 25.904c-1.93 0-3.5 1.57-3.5 3.5s1.57 3.5 3.5 3.5 3.5-1.57 3.5-3.5-1.57-3.5-3.5-3.5zm0 5c-.827 0-1.5-.673-1.5-1.5s.673-1.5 1.5-1.5 1.5.673 1.5 1.5-.673 1.5-1.5 1.5z"/><path stroke="null" d="M20.644 15.2395C19.0477 5.2402 24.3944 1.0317 31.0938 1.0317s12.1259 6.1335 12.1259 13.7056c0 7.5722-5.187 5.2525-11.8865 5.2525-6.6994 0-9.0925 5.249-10.689-4.7503z" stroke-linecap="undefined" stroke-linejoin="undefined" stroke-width="1.5" fill="#ffd200"/><path d="M59.965 32.904c0-1.535-.584-2.933-1.536-3.995.092-1.157-.096-2.332-.58-3.415-.226-.505-.819-.732-1.321-.504-.504.226-.73.817-.504 1.321.158.354.266.722.338 1.096a5.9692 5.9692 0 00-2.396-.502c-.059 0-.11.024-.167.034-.112-.008-.219-.034-.333-.034-.246 0-.482.034-.717.072-1.874-4.454-5.11-8.074-9.437-10.554.419-1.257.645-2.579.645-3.922 0-6.893-5.607-12.5-12.5-12.5s-12.5 5.607-12.5 12.5c0 .94.108 1.863.309 2.756-.892.292-1.684.573-2.31.82-4.385-1.751-7.24-2.354-9.793-2.07-.607.067-1.084.516-1.187 1.116-.104.608.202 1.197.76 1.465 1.358.654 1.936 2.238 2.548 3.916.153.421.311.851.482 1.272-2.608 2.7-3.09 4.888-3.557 8.129h-1.26c-3.123 0-4.914 2.222-4.914 6.096v3.607c0 3.943 1.837 6.297 4.914 6.297h.617c.732 1.852 1.82 3.543 3.186 5.064l-1.381 3.452c-.502 1.255-.35 2.673.408 3.792S9.797 60 11.149 60h6.74c.852 0 1.607-.511 1.925-1.303l.367-.917c3.191.936 6.738 1.44 10.518 1.44 3.094 0 5.984-.393 8.616-1.128l.004.015C39.66 59.239 40.683 60 41.866 60h6.017c1.434 0 2.731-.671 3.56-1.842s1.03-2.617.552-3.97l-1.171-3.319c2.649-3.27 4.143-7.347 4.143-11.966 0-.03-.003-.06-.003-.09 2.833-.476 5.001-2.941 5.001-5.909zm-6.133.963l-.169.013c-.057.004-.113.011-.197.024-1.378 0-2.5-1.122-2.5-2.5 0-.156.019-.307.046-.455.008-.042.019-.083.028-.124.026-.111.06-.218.1-.323.014-.036.027-.073.043-.109.119-.267.283-.509.483-.718.035-.036.073-.07.111-.104a2.7216 2.7216 0 01.37-.284c.058-.036.12-.067.181-.098.069-.035.136-.073.209-.103l.009-.004c.285-.113.594-.18.918-.18 1.378 0 2.5 1.122 2.5 2.5.001 1.255-.928 2.285-2.132 2.465zM31.457 2c5.79 0 10.5 4.71 10.5 10.5 0 1.256-.227 2.469-.645 3.608l-.155.375c-.496 1.199-1.215 2.307-2.096 3.239-.124-.058-.254-.095-.379-.15-.293-.127-.589-.242-.888-.351-.258-.094-.514-.19-.775-.271-.283-.086-.569-.153-.855-.223-.521-.128-1.045-.228-1.573-.302-.25-.035-.5-.079-.751-.102-.312-.029-.624-.035-.938-.045-.256-.008-.511-.016-.767-.012-.3.005-.599.021-.898.043-.284.021-.566.052-.849.088-.27.035-.539.067-.807.116-.383.069-.762.161-1.141.258-.165.043-.333.073-.497.121-.55.161-1.092.357-1.625.58-.122.051-.24.113-.361.167-.428.191-.85.4-1.263.632-.059.033-.121.056-.179.09-.333-.294-.643-.611-.934-.943-.04-.045-.075-.093-.114-.138-.261-.308-.507-.628-.731-.964-.017-.026-.034-.051-.051-.077-.495-.759-.896-1.583-1.186-2.46l-.109-.335c-.276-.944-.432-1.931-.432-2.945C20.957 6.71 25.667 2 31.457 2zM17.889 58h-6.74c-.698 0-1.322-.332-1.713-.909s-.467-1.281-.208-1.928l1.06-2.651c2.171 1.931 4.868 3.502 7.965 4.635l-.364.853zm31.92-.997c-.448.634-1.15.997-1.927.997h-6.017a.6528.6528 0 01-.63-.469l-.016-.052c3.171-1.145 5.901-2.822 8.073-4.936l.816 2.311c.259.732.15 1.515-.299 2.149zm-1.648-6.191c-.008.008-.016.018-.024.026-.404.41-.836.798-1.285 1.173-.109.091-.223.177-.335.266-.333.265-.678.519-1.033.765-.154.107-.307.216-.465.319-.451.294-.917.576-1.401.839-.164.089-.336.169-.503.254-.364.186-.735.365-1.115.533-.207.091-.414.181-.625.267-.452.184-.915.357-1.388.516-.105.035-.205.077-.311.111l-.042.013c-2.684.859-5.687 1.324-8.935 1.324-4.119 0-7.97-.666-11.344-1.86-.199-.07-.399-.138-.594-.211-5.708-2.162-9.943-5.889-11.553-10.57l-.232-.675H4.949c-2.409 0-2.914-2.336-2.914-4.297V36c0-4.096 2.193-4.096 2.914-4.096h3l.12-.862c.524-3.747.787-5.628 3.582-8.322l.517-.498-.306-.649c-.253-.537-.469-1.128-.698-1.755-.48-1.317-1.005-2.756-1.989-3.848 1.905.145 4.205.81 7.406 2.11l.382.155.38-.159c.613-.256 1.508-.579 2.532-.915.199.494.431.972.692 1.436.02.036.041.072.061.109.236.41.496.806.779 1.188.05.069.098.139.15.206.265.343.551.67.853.987.074.078.141.16.216.236.063.063.126.125.19.186-.542.416-1.07.857-1.566 1.352-.391.391-.391 1.023 0 1.414s1.023.391 1.414 0c.653-.653 1.357-1.223 2.097-1.716l.16-.103c.305-.197.616-.379.932-.55.128-.069.258-.132.387-.197.252-.126.506-.244.763-.354.102-.043.202-.089.305-.13.363-.144.731-.273 1.102-.385.062-.019.125-.034.187-.052.363-.103.728-.194 1.097-.267.035-.007.07-.015.105-.022 2.579-.491 5.272-.242 7.735.746.024.01.048.019.072.029 1.643.67 3.183 1.67 4.515 3.001.195.195.451.293.707.293s.512-.098.707-.293a.9989.9989 0 000-1.414c-.828-.828-1.731-1.535-2.68-2.14.081-.093.15-.194.228-.289.136-.166.272-.332.4-.506.125-.169.243-.342.36-.517.096-.144.188-.289.278-.437.118-.194.232-.389.339-.588.023-.043.051-.084.073-.127 3.829 2.25 6.701 5.487 8.376 9.447-.206.141-.393.304-.571.475a4.4459 4.4459 0 00-.99 1.422c-.013.029-.027.056-.039.085-.1.242-.178.494-.235.754-.01.047-.018.095-.026.143-.049.268-.083.54-.083.82 0 .298.032.587.088.869.019.095.053.183.078.275.048.182.097.364.167.537.042.104.098.2.147.3.074.15.149.299.239.439.064.099.137.19.208.283.097.127.194.252.304.368.082.087.17.167.259.248.116.106.236.206.363.299.098.072.198.138.301.202.134.083.272.157.415.225.11.053.22.103.334.146.151.058.306.103.464.144.118.031.234.063.356.084.049.009.095.027.145.034.089 1.006.134 2.027.134 3.044-.002 4.712-1.748 8.8-4.806 11.912zm6.742-14.031c-.021-.371-.062-.737-.094-1.105 1.59-.502 2.797-1.848 3.081-3.522.046.243.076.493.076.75-.001 1.881-1.311 3.453-3.063 3.877z"/><path d="M26.331 18.692c.183.141.398.209.612.209.298 0 .594-.133.791-.387.338-.437.259-1.065-.178-1.403-1.577-1.222-2.482-3.061-2.482-5.043 0-3.52 2.863-6.383 6.383-6.383s6.383 2.863 6.383 6.383c0 1.792-.73 3.455-2.056 4.681-.405.375-.43 1.007-.055 1.413.375.405 1.007.43 1.413.055 1.714-1.585 2.697-3.827 2.697-6.149 0-4.622-3.761-8.383-8.383-8.383s-8.383 3.761-8.383 8.383c.001 2.605 1.188 5.02 3.258 6.624zM31.871 53.004c-4.542.393-8.312-.206-12.227-1.939-.506-.223-1.096.004-1.319.51-.224.505.005 1.096.51 1.319 3.386 1.499 6.781 2.222 10.513 2.222.878 0 1.776-.04 2.696-.12.55-.047.958-.532.91-1.082-.048-.55-.535-.969-1.083-.91z"/></g></svg>