<svg width="427.813" height="427.813" xmlns="http://www.w3.org/2000/svg">

 <g>
  <title>background</title>
  <rect fill="none" id="canvas_background" height="402" width="582" y="-1" x="-1"/>
 </g>
 <g>
  <title>Layer 1</title>
  <path id="svg_27" d="m65.06111,143.297403c-1.84901,-18.65016 34.2016,-14.79209 76.42579,-14.79209c42.22419,0 88.75252,-2.00906 82.58915,18.49011c-6.16337,20.49917 1.54596,9.24505 -80.74014,10.47772c-82.28609,1.23268 -76.42579,4.47441 -78.2748,-14.17574z" stroke-linecap="null" stroke-linejoin="null" stroke-width="1.5" fill-opacity="null" fill="#ffd200"/>
  <ellipse ry="41.294578" rx="42.219083" id="svg_23" cy="315.255416" cx="90.022761" fill-opacity="null" stroke-width="1.5" fill="#ffd200"/>
  <ellipse ry="41.294578" rx="42.219083" id="svg_26" cy="314.639079" cx="264.446124" fill-opacity="null" stroke-width="1.5" fill="#ffd200"/>
  <path stroke="null" id="svg_28" d="m43.508779,81.663702c-2.377284,-18.65016 43.973212,-14.79209 98.261118,-14.79209c54.287906,0 114.109672,-2.00906 106.185389,18.49011c-7.924284,20.49917 1.98765,9.24505 -103.808105,10.47772c-105.795743,1.23268 -98.261118,4.47441 -100.638402,-14.17574z" stroke-linecap="null" stroke-linejoin="null" stroke-width="1.5" fill-opacity="null" fill="#ffd200"/>
  <path id="svg_2" d="m418.445,295.13l0,-27.678l0,-31.049c0,-13.526 -11.004,-24.531 -24.531,-24.531l-27.207,0l-19.358,-81.06l14.705,0c2.761,0 5,-2.239 5,-5c0,-20.022 -16.29,-36.312 -36.312,-36.312l-77.207,0l0,-4.878c0,-11.513 -9.367,-20.88 -20.88,-20.88l-172.546,0c-11.513,0 -20.88,9.367 -20.88,20.88l0,4.878l-16.239,0c-2.761,0 -5,2.239 -5,5l0,197.87c-10.04,0.734 -17.99,9.117 -17.99,19.341c0,10.704 8.708,19.413 19.413,19.413l25.394,0c6.504,19.135 24.633,32.947 45.939,32.947c21.306,0 39.435,-13.812 45.939,-32.947l81.521,0c6.504,19.135 24.633,32.947 45.939,32.947c21.307,0 39.436,-13.812 45.939,-32.947l98.317,0c10.704,0 19.413,-8.708 19.413,-19.413c-0.001,-7.025 -3.764,-13.172 -9.369,-16.581zm-10.044,-2.832l-16.916,0l0,-12.736c0,-3.921 3.189,-7.11 7.11,-7.11l9.849,0l0,19.846l-0.043,0zm-58.207,-106.521l6.232,26.095l-79.516,0l0,-63.865l64.265,0l9.019,37.77zm-11.408,-47.77l-66.877,0c-2.761,0 -5,2.239 -5,5l0,73.865c0,2.761 2.239,5 5,5l90.851,0l31.154,0c8.012,0 14.531,6.519 14.531,14.531l0,26.049l-9.849,0c-9.435,0 -17.11,7.676 -17.11,17.11l0,12.736l-74.774,0c-8.25,-15.04 -24.236,-25.261 -42.567,-25.261c-4.724,0 -9.288,0.691 -13.609,1.956l0,-138.181l86.532,0l1.718,7.195zm-95.25,-53.384l0,4.877l-61.089,0l0,-15.757l50.209,0c5.999,0 10.88,4.881 10.88,10.88zm-132.057,4.877l0,-15.757l60.967,0l0,15.757l-60.967,0zm-62.25,-4.877c0,-5.999 4.881,-10.88 10.88,-10.88l41.371,0l0,15.757l-52.25,0l0,-4.877l-0.001,0zm281.513,14.877c12.799,0 23.494,9.186 25.835,21.312l-15.563,0l-95.479,0c-2.761,0 -5,2.239 -5,5l0,147.378c-7.97,4.46 -14.563,11.096 -18.958,19.108l-88.265,0c-8.25,-15.04 -24.236,-25.261 -42.567,-25.261c-18.331,0 -34.317,10.221 -42.567,25.261l-20.188,0l0,-192.798l302.752,0zm-311.329,221.624c-5.19,0 -9.413,-4.223 -9.413,-9.413c0,-5.19 4.223,-9.413 9.413,-9.413l24.672,0c-1.2,4.217 -1.856,8.66 -1.856,13.256c0,1.884 0.119,3.741 0.33,5.57l-23.146,0zm71.333,32.947c-21.238,0 -38.517,-17.278 -38.517,-38.517s17.279,-38.517 38.517,-38.517s38.517,17.279 38.517,38.517s-17.279,38.517 -38.517,38.517zm48.187,-32.947c0.21,-1.829 0.33,-3.685 0.33,-5.57c0,-4.596 -0.656,-9.039 -1.856,-13.256l80.077,0c-1.2,4.217 -1.856,8.66 -1.856,13.256c0,1.884 0.119,3.741 0.33,5.57l-77.025,0zm125.212,32.947c-21.238,0 -38.517,-17.278 -38.517,-38.517s17.278,-38.517 38.517,-38.517s38.517,17.279 38.517,38.517s-17.279,38.517 -38.517,38.517zm144.256,-32.947l-96.069,0c0.21,-1.829 0.33,-3.685 0.33,-5.57c0,-4.596 -0.656,-9.039 -1.856,-13.256l75.68,0l21.916,0c5.19,0 9.413,4.223 9.413,9.413c-0.002,5.19 -4.224,9.413 -9.414,9.413z"/>
  <path id="svg_3" d="m264.145,294.82c-11.433,0 -20.733,9.301 -20.733,20.734s9.301,20.734 20.733,20.734s20.734,-9.301 20.734,-20.734s-9.302,-20.734 -20.734,-20.734zm0,31.468c-5.918,0 -10.733,-4.815 -10.733,-10.734s4.815,-10.734 10.733,-10.734s10.734,4.815 10.734,10.734s-4.816,10.734 -10.734,10.734z"/>
  <path id="svg_4" d="m90.746,294.82c-11.433,0 -20.734,9.301 -20.734,20.734s9.301,20.734 20.734,20.734s20.733,-9.301 20.733,-20.734s-9.3,-20.734 -20.733,-20.734zm0,31.468c-5.918,0 -10.734,-4.815 -10.734,-10.734s4.815,-10.734 10.734,-10.734s10.733,4.815 10.733,10.734s-4.814,10.734 -10.733,10.734z"/>
  <path id="svg_5" d="m65.041,250.749l7.578,0l40.093,0l10.062,0l40.093,0l9.347,0l40.093,0l8.322,0c2.761,0 5,-2.239 5,-5l0,-116.759c0,-1.147 -0.401,-2.19 -1.051,-3.034c-0.677,-1.958 -2.518,-3.374 -4.706,-3.374l-30.966,0l-30.966,0l-30.966,0l-30.967,0l-30.966,0c-2.761,0 -5,2.239 -5,5l0,1.408l0,18.254l0,98.504c0,2.762 2.239,5.001 5,5.001zm149.83,-116.759l0,13.254c0,5.78 -4.703,10.483 -10.483,10.483s-10.483,-4.703 -10.483,-10.483l0,-13.254l20.966,0zm-30.966,0l0,13.254c0,5.78 -4.703,10.483 -10.483,10.483l0,0c-5.78,0 -10.483,-4.703 -10.483,-10.483l0,-13.254l20.966,0zm-30.967,0l0,13.254c0,5.78 -4.703,10.483 -10.483,10.483s-10.483,-4.703 -10.483,-10.483l0,-13.254l20.966,0zm-30.965,0l0,13.254c0,5.78 -4.703,10.483 -10.483,10.483s-10.483,-4.703 -10.483,-10.483l0,-13.254l20.966,0zm-51.932,0l20.966,0l0,13.254c0,5.78 -4.703,10.483 -10.483,10.483s-10.483,-4.703 -10.483,-10.483l0,-13.254zm10.483,33.738c6.184,0 11.724,-2.766 15.483,-7.113c3.759,4.347 9.299,7.113 15.483,7.113s11.724,-2.766 15.483,-7.113c3.759,4.347 9.299,7.113 15.483,7.113c6.184,0 11.724,-2.766 15.483,-7.113c3.759,4.347 9.299,7.113 15.483,7.113c6.184,0 11.724,-2.766 15.483,-7.113c3.759,4.347 9.299,7.113 15.483,7.113c4.15,0 8.01,-1.249 11.24,-3.379l0,51.486c-0.9,-2.388 -2.133,-4.65 -3.705,-6.677l-0.07,-0.09c-0.852,-1.098 -1.321,-2.468 -1.321,-3.858l0,-11.513c0,-2.761 -2.239,-5 -5,-5l-26.545,0c-2.761,0 -5,2.239 -5,5l0,11.48c0,1.384 -0.465,2.75 -1.312,3.847l-0.117,0.151c-2.628,3.406 -4.348,7.453 -5.02,11.685c-0.68,-4.242 -2.412,-8.296 -5.054,-11.702l-0.07,-0.09c-0.852,-1.098 -1.321,-2.469 -1.321,-3.858l0,-11.513c0,-2.761 -2.239,-5 -5,-5l-26.546,0c-2.761,0 -5,2.239 -5,5l0,11.48c0,1.384 -0.465,2.75 -1.312,3.847l-0.117,0.152c-3.447,4.468 -5.345,10.037 -5.345,15.68l0,15.894l-0.062,0l0,-15.862c0,-5.668 -1.913,-11.257 -5.382,-15.729l-0.07,-0.09c-0.852,-1.098 -1.321,-2.468 -1.321,-3.858l0,-11.513c0,-2.761 -2.239,-5 -5,-5l-26.546,0c-2.761,0 -5,2.239 -5,5l0,11.48c0,1.384 -0.465,2.75 -1.305,3.839l-0.124,0.16c-1.159,1.503 -2.127,3.138 -2.922,4.851l0,-49.217c3.071,1.839 6.649,2.917 10.483,2.917zm-2.905,73.021l0,-15.894c0,-3.445 1.159,-6.844 3.258,-9.566l0.123,-0.159c2.187,-2.836 3.392,-6.371 3.392,-9.953l0,-6.48l16.546,0l0,6.513c0,3.598 1.215,7.145 3.415,9.981l0.07,0.09c2.121,2.734 3.289,6.146 3.289,9.606l0,15.862l-30.093,0zm50.154,0l0,-15.894c0,-3.445 1.159,-6.844 3.264,-9.574l0.117,-0.151c2.188,-2.836 3.393,-6.371 3.393,-9.953l0,-6.48l16.546,0l0,6.513c0,3.598 1.214,7.145 3.415,9.981l0.07,0.09c2.121,2.734 3.289,6.146 3.289,9.606l0,15.862l-30.094,0zm49.44,0l0,-15.894c0,-3.445 1.159,-6.845 3.264,-9.574l0.117,-0.152c2.188,-2.836 3.392,-6.371 3.392,-9.953l0,-6.48l16.545,0l0,6.513c0,3.598 1.215,7.145 3.415,9.981l0.07,0.09c2.121,2.734 3.289,6.146 3.289,9.606l0,15.862l-30.092,0l0,0.001z"/>
 </g>
</svg>