<svg width="512" height="512" xmlns="http://www.w3.org/2000/svg">

 <g>
  <title>background</title>
  <rect fill="none" id="canvas_background" height="402" width="582" y="-1" x="-1"/>
 </g>
 <g>
  <title>Layer 1</title>
  <path id="svg_5" d="m62.90332,183.49082c-10.96695,-24.99808 -6.91169,-14.88372 114.36963,-14.88372c121.28132,0 121.41983,-10.8977 101.83598,50.91799c-19.58384,61.8157 -23.63911,43.08445 -101.83598,50.91799c-78.19687,7.83354 -103.40268,-61.95418 -114.36963,-86.95226z" stroke-opacity="null" stroke-linecap="null" stroke-linejoin="null" stroke-width="1.5" stroke="null" fill-opacity="null" fill="#ffd200"/>
  <ellipse ry="46.609545" rx="48.567929" id="svg_2" cy="307.652384" cx="91.104049" stroke-width="1.5" fill="#ffd200"/>
  <path id="svg_1" d="m96.921,251.274354c-2.004,-0.215 -4.038,-0.331 -6.098,-0.331c-31.375,0 -56.899,25.524 -56.899,56.899c0,31.374 25.525,56.899 56.899,56.899s56.899,-25.525 56.899,-56.899c0,-5.556 -0.814,-10.921 -2.306,-16l29.054,-11.967c0.525,-0.217 0.93,-0.348 1.238,-0.4c2.973,-0.509 5.963,1.271 7.276,4.334l28.69,66.814c4.423,10.316 14.245,16.982 25.022,16.982c6.012,0 11.733,-2.015 16.549,-5.83c4.732,-3.757 8.116,-8.897 9.785,-14.863l20.649,-73.645l73.483,-103.071l29.769,0l0,11.977l74.258,0c9.984,0 18.107,-8.123 18.107,-18.107s-8.123,-18.107 -18.107,-18.107l-74.258,0l0,12.237l-35.951,0l-75.887,106.442l-7.061,0c9.22,-7.742 15.701,-18.731 17.703,-31.501l8.727,-55.681l14.402,0l0,-12l-12.521,0l-7.014,0l-236.264,0l-10.951,0l-9.413,0l0,12l17.077,0l47.143,73.818zm370.378,-87.207c0,3.367 -2.74,6.107 -6.107,6.107l-46.516,0l0,-12.214l46.516,0c3.367,0 6.107,2.74 6.107,6.107zm-68.365,-6.107l3.742,0l0,12.214l-3.742,0l0,-12.214zm-263.211,149.883c0,24.758 -20.142,44.899 -44.899,44.899s-44.899,-20.142 -44.899,-44.899s20.142,-44.899 44.899,-44.899c16.567,0 31.056,9.025 38.837,22.412l-14.646,6.032c-5.274,-7.731 -14.151,-12.818 -24.196,-12.818c-16.141,0 -29.272,13.131 -29.272,29.271s13.131,29.272 29.272,29.272s29.272,-13.132 29.272,-29.272c0,-1.831 -0.177,-3.621 -0.5,-5.36l14.662,-6.039c0.956,3.642 1.47,7.462 1.47,11.401zm-42.619,5.547l14.956,-6.16c0.007,0.204 0.031,0.404 0.031,0.61c0,9.524 -7.748,17.272 -17.272,17.272s-17.272,-7.748 -17.272,-17.272c0,-9.523 7.748,-17.271 17.272,-17.271c5.006,0 9.507,2.153 12.665,5.567l-14.95,6.158l4.57,11.096zm45.212,-36.834c0.878,0.045 1.759,0.083 2.646,0.083l9.858,0l-9.973,4.107c-0.782,-1.437 -1.633,-2.83 -2.531,-4.19zm131.957,0.083l-18.797,67.037c-0.984,3.519 -2.952,6.527 -5.685,8.697c-2.669,2.114 -5.814,3.232 -9.093,3.232c-5.971,0 -11.464,-3.813 -13.995,-9.714l-28.69,-66.815c-0.367,-0.854 -0.797,-1.662 -1.265,-2.438l42.139,0l35.386,0l0,0.001zm12.045,-99.181l-0.88,5.61l-152.369,0l0,12l150.488,0l-5.675,36.212c-3.03,19.33 -19.43,33.359 -38.995,33.359l-93.926,0c-13.317,0 -25.546,-6.7 -32.714,-17.924l-32.985,-51.647l39.738,0l0,-12l-47.401,0l-3.583,-5.61l218.302,0z"/>
 </g>
</svg>