<svg xmlns="http://www.w3.org/2000/svg" width="36.469" height="38"><defs><filter id="a" x="490" y="3530" width="36.469" height="38" filterUnits="userSpaceOnUse"><feFlood result="flood" flood-color="#fff"/><feComposite result="composite" operator="in" in2="SourceGraphic"/><feBlend result="blend" in2="SourceGraphic"/></filter></defs><path data-name="Фигура 1" d="M490 3564.77v-2.25a2.863 2.863 0 012.845-2.88h16.318c2.231 0 3.382 1.07 3.382 2.66v3.21c0 1.66-1.1 2.49-3.382 2.49h-16.532c-1.66 0-2.631-1.12-2.631-3.23zm3.221.19h16.1a.218.218 0 00.214-.22v-1.84a.218.218 0 00-.214-.22h-16.1a.218.218 0 00-.215.22v1.84a.218.218 0 00.215.22zm9.34-22.79a.21.21 0 01.215.21v7.06l-.85 2.31a.215.215 0 00.2.29h1.194a.206.206 0 00.174-.09l15.54-21.89a.223.223 0 01.284-.06l3.116 1.9a.225.225 0 01.075.3l-.918 1.62a.236.236 0 00-.028.11v9.54a.218.218 0 00.214.22h.648a.209.209 0 01.212.24l-.684 4.89a.216.216 0 01-.212.19h-.178v1.47a.216.216 0 00.116.19 2.422 2.422 0 01.711 3.75.216.216 0 00.015.31l3.46 3.01a.217.217 0 01-.14.38h-.5a.234.234 0 01-.14-.05l-3.454-3.01a.2.2 0 00-.207-.04 2.844 2.844 0 01-.91.16 2.1 2.1 0 01-.885-.2.2.2 0 00-.225.02l-3.747 3.07a.175.175 0 01-.135.05h-.436a.242.242 0 01-.149-.43l3.821-3.14a.208.208 0 00.043-.28 2.352 2.352 0 01-.39-1.35.752.752 0 111.5 0 1.17 1.17 0 00.029.27.213.213 0 00.343.11.379.379 0 01.481.01l.165.14a.213.213 0 00.271.01.8.8 0 00.278-.67.934.934 0 00-.8-.88.757.757 0 01-.627-.75v-1.94a.21.21 0 00-.214-.21h-.437a.221.221 0 01-.21-.18l-.965-4.88a.214.214 0 01.21-.26h.658a.218.218 0 00.214-.22v-4.41a.213.213 0 00-.4-.1l-8.589 16.71a.229.229 0 00-.024.1v.62a.21.21 0 01-.215.21H507.5a.217.217 0 00-.214.22v1.09a.21.21 0 01-.215.21h-10.845a.21.21 0 01-.214-.21v-1.09a.218.218 0 00-.214-.22h-4.081a.21.21 0 01-.214-.21v-14.01a.21.21 0 01.214-.21h10.844zm6.715 3.95l-.009.01 2.508 1.65a.214.214 0 00.316-.26l-1.192-3.09a.213.213 0 00-.373-.05zm10.784-2.65a.218.218 0 00.214.22h.326a.218.218 0 00.214-.22v-7.29a.213.213 0 00-.4-.1l-.323.61a.218.218 0 00-.025.1v6.68zm-.369-8.08l.922-1.77a.218.218 0 00-.072-.28l-1.437-.95a.213.213 0 00-.328.22l.515 2.72a.211.211 0 00.4.06zm-2.319-1.25l-1.064 1.87a.217.217 0 00.07.29l1.717 1.12a.216.216 0 00.325-.23l-.653-2.99a.214.214 0 00-.395-.06zm-.12 4.91l-1.589-1.05a.216.216 0 00-.326.23l.622 2.86a.215.215 0 00.4.06l.966-1.82a.212.212 0 00-.073-.28zm-3.238.37l-1.207 1.78a.211.211 0 00.061.3l1.815 1.18a.216.216 0 00.325-.23l-.608-2.95a.212.212 0 00-.386-.08zm.378 5.25l-2-1.39a.214.214 0 00-.321.25l1.14 3.09a.211.211 0 00.391.02l.862-1.7a.21.21 0 00-.072-.27zm-3.649 6.94l1-1.78a.213.213 0 00-.062-.28l-2.482-1.79a.215.215 0 00-.322.26l1.482 3.57a.211.211 0 00.384.02zm-1.52 1.43l-1.786-3.89a.214.214 0 00-.367-.04l-1.452 2a.222.222 0 00.066.32l3.237 1.89a.217.217 0 00.302-.28zm-14.5-3.28h4.832a.21.21 0 00.214-.21v-4.13a.21.21 0 00-.214-.21h-4.832a.21.21 0 00-.215.21v4.13a.21.21 0 00.216.21zm30.987 12.92h.537a.218.218 0 01.215.22v1.08a.218.218 0 01-.215.22h-11.6a.218.218 0 01-.214-.22v-1.08a.218.218 0 01.214-.22h1.075a.218.218 0 00.214-.22v-1.84a.218.218 0 00-.214-.22h-1.075a.21.21 0 01-.214-.21v-1.09a.218.218 0 01.214-.22h11.6a.218.218 0 01.215.22v1.09a.21.21 0 01-.215.21h-1.074a.218.218 0 00-.215.22v1.84a.218.218 0 00.215.22h.537z" transform="translate(-490 -3530)" fill="#292929" fill-rule="evenodd" filter="url(#a)"/></svg>